<svg width="13000" height="4369" viewBox="0 0 13000 4369" fill="none" xmlns="http://www.w3.org/2000/svg">
<path d="M1738.32 186.329C1774.72 111.008 1882 111.008 1918.4 186.329L3342.42 3133.24C3374.51 3199.64 3326.13 3276.75 3252.38 3276.75H404.339C330.591 3276.75 282.213 3199.64 314.301 3133.24L1738.32 186.329Z" fill="#FD5D76"/>
<path d="M2995.64 194.227C3031.55 117.269 3140.98 117.269 3176.88 194.227L4548.73 3134.47C4579.66 3200.77 4531.27 3276.75 4458.11 3276.75H1714.42C1641.26 3276.75 1592.86 3200.77 1623.8 3134.47L2995.64 194.227Z" fill="#FD5D76" fill-opacity="0.8"/>
<path d="M6110.62 2619L6658.12 1359H6985.62V3009H6700.62V1921.5L6225.62 3009H5995.62L5508.12 1921.5V3009H5220.62V1359H5548.12L6110.62 2619ZM7870.91 1821.5C8017.57 1821.5 8130.91 1859 8210.91 1934C8290.91 2007.33 8330.91 2111.5 8330.91 2246.5C8330.91 2264.83 8329.24 2284.83 8325.91 2306.5C8324.24 2326.5 8320.91 2346.5 8315.91 2366.5C8312.57 2386.5 8307.57 2404.83 8300.91 2421.5C8295.91 2436.5 8290.07 2449 8283.41 2459H7555.91C7559.24 2509 7568.41 2556.5 7583.41 2601.5C7598.41 2644.83 7620.07 2683.17 7648.41 2716.5C7676.74 2748.17 7710.91 2774 7750.91 2794C7792.57 2812.33 7840.91 2821.5 7895.91 2821.5C7957.57 2821.5 8022.57 2809.83 8090.91 2786.5C8160.91 2763.17 8220.07 2734 8268.41 2699L8313.41 2904C8291.74 2917.33 8265.07 2932.33 8233.41 2949C8201.74 2964 8165.91 2978.17 8125.91 2991.5C8085.91 3004.83 8042.57 3015.67 7995.91 3024C7950.91 3034 7903.41 3039 7853.41 3039C7760.07 3039 7677.57 3023.17 7605.91 2991.5C7534.24 2958.17 7474.24 2914 7425.91 2859C7377.57 2802.33 7340.91 2737.33 7315.91 2664C7290.91 2590.67 7278.41 2514 7278.41 2434C7278.41 2352.33 7290.91 2274.83 7315.91 2201.5C7342.57 2126.5 7380.91 2060.67 7430.91 2004C7480.91 1947.33 7542.57 1903.17 7615.91 1871.5C7690.91 1838.17 7775.91 1821.5 7870.91 1821.5ZM7863.41 2036.5C7793.41 2036.5 7733.41 2057.33 7683.41 2099C7635.07 2139 7600.07 2194 7578.41 2264H8055.91C8057.57 2259 8058.41 2253.17 8058.41 2246.5C8060.07 2239.83 8060.91 2231.5 8060.91 2221.5C8060.91 2168.17 8042.57 2124 8005.91 2089C7969.24 2054 7921.74 2036.5 7863.41 2036.5ZM9268.12 2109C9251.45 2095.67 9225.62 2084.83 9190.62 2076.5C9155.62 2068.17 9125.62 2064 9100.62 2064C9067.28 2064 9039.78 2072.33 9018.12 2089C8996.45 2104 8977.28 2124.83 8960.62 2151.5C8943.95 2176.5 8929.78 2205.67 8918.12 2239C8906.45 2272.33 8895.62 2306.5 8885.62 2341.5V3009H8610.62V1859H8825.62L8838.12 2099H8848.12C8864.78 2064 8882.28 2029.83 8900.62 1996.5C8918.95 1963.17 8939.78 1934 8963.12 1909C8986.45 1882.33 9013.12 1861.5 9043.12 1846.5C9074.78 1829.83 9111.45 1821.5 9153.12 1821.5C9219.78 1821.5 9282.28 1843.17 9340.62 1886.5L9268.12 2109ZM9810.67 1859V2606.5C9810.67 2674.83 9828.17 2727.33 9863.17 2764C9899.84 2799 9946.51 2816.5 10003.2 2816.5C10061.5 2816.5 10114.8 2797.33 10163.2 2759C10211.5 2719 10247.3 2662.33 10270.7 2589V1859H10548.2V3009H10333.2L10318.2 2849H10308.2C10289.8 2887.33 10266.5 2919 10238.2 2944C10209.8 2967.33 10178.2 2986.5 10143.2 3001.5C10109.8 3014.83 10074.8 3024 10038.2 3029C10001.5 3035.67 9965.67 3039 9930.67 3039C9875.67 3039 9824.01 3032.33 9775.67 3019C9729.01 3005.67 9687.34 2984 9650.67 2954C9615.67 2922.33 9587.34 2881.5 9565.67 2831.5C9545.67 2779.83 9535.67 2716.5 9535.67 2641.5V1859H9810.67Z" fill="black"/>
</svg>
